<?xml version="1.0" standalone="no"?><!DOCTYPE svg PUBLIC "-//W3C//DTD SVG 1.1//EN" "http://www.w3.org/Graphics/SVG/1.1/DTD/svg11.dtd"><svg t="1676170678859" class="icon" viewBox="0 0 1024 1024" version="1.1" xmlns="http://www.w3.org/2000/svg" p-id="1823" xmlns:xlink="http://www.w3.org/1999/xlink" width="200" height="200"><path d="M674.822854 561.457412c0 25.612331-23.210631 48.801473-48.822962 48.801473l-21.262256 0c-25.615401 0-47.221488-22.995737-47.221488-48.50369l0-11.927657L440.2954 549.827537l0.091074 12.339026c0.214894 25.611308-19.773346 48.093345-45.3867 48.093345l-21.265326 0c-25.612331 0-47.27777-23.245424-47.27777-48.801473l0-15.240099c-21.328771-3.514033-39.102576-9.296737-60.431348-17.434068l0 227.067552c0 22.112624 18.117636 42.810015 40.23026 42.810015l389.959479 0c22.112624 0 42.594097-20.697391 42.594097-42.810015L738.809167 528.061814c-21.328771 8.518001-42.657542 14.545274-63.98529 18.162662L674.823877 561.457412z" fill="#c8831d" p-id="1824"></path><path d="M350.582145 219.234143l8.453533 0c9.227152 0 17.186428-9.060353 17.186428-18.287505l0-42.143842c0-9.344832 8.185426-16.898879 17.538445-16.898879l216.403678-0.37453c9.247618 0 18.447141 7.65126 18.447141 16.898879l0 42.143842c0 9.311063 4.624321 18.662035 13.81668 18.662035l8.452509 0c9.195429 0 16.833387-9.463536 16.833387-18.662035l0-42.518373c0-32.57593-25.695219-58.751079-58.272171-58.751079l-214.874859-0.041956c-32.458249 0-57.44534 26.709315-57.44534 59.167564l0 42.518373C337.120552 210.257701 341.359087 219.234143 350.582145 219.234143z" fill="#c8831d" p-id="1825"></path><path d="M955.514721 747.125065c-2.13871-68.866461-33.884738-197.706851-62.337767-272.634354-14.398942-37.901215-26.396183-72.733535-33.506115-99.540064l0-0.63138c10.664897-28.820396 15.135722-59.70173 15.135722-92.604094 0-8.102538-0.968048-16.781198-1.787716-26.015513-0.062422-11.615549-9.785877-21.335934-21.418822-21.335934l-700.840926-0.014326c-10.782577-0.007163-20.464077 8.623401-21.449521 19.565615-0.927115 9.900487-0.912789 19.176758-0.912789 27.800159 0 32.91669 6.101975 63.805188 16.766872 92.638887l0 0.298805c-7.108908 26.848485-20.773116 61.791321-35.228339 99.838869-28.459169 74.927503-61.593823 203.767893-63.732533 272.634354-2.083451 67.443042 20.915355 116.949572 99.148138 125.690654 7.632841 23.849174 31.648814 43.153846 57.969273 43.153846l593.07655 0c26.337855 0 48.750307-19.304671 56.380078-43.168172C930.935929 864.045985 957.597149 814.540478 955.514721 747.125065zM813.542242 856.43361c0 9.261944-7.893784 17.878183-17.155728 17.878183l-593.420381-0.110517c-4.624321 0-10.605545-1.916653-13.673417-4.984524-3.068895-3.068895-5.027503-7.297197-5.027503-11.920494l0-1.847068 0.375553-409.298943c37.727253 43.587728 95.603405 74.782194 163.144684 81.641415l0 32.443923c0 13.892405 11.417027 25.139563 25.365714 25.139563l20.384259 0c13.948687 0 25.345248-11.1919 25.345248-25.139563L418.880671 528.499789l163.520237 0 0 31.735795c0 13.837146 7.949043 25.139563 21.896706 25.139563l20.402679 0c13.948687 0 28.795836-11.1919 28.795836-25.139563l0-32.443923c67.540256-6.860245 123.722836-38.018895 161.443949-81.558527C814.938032 582.591755 813.542242 720.082152 813.542242 856.43361zM784.993023 418.329621c-30.153764 34.859949-78.1765 60.673871-131.49894 67.110467l0-22.766516c0-13.947663-14.954597-23.043832-28.795836-23.043832L604.296591 439.629739c-13.840216 0-21.896706 9.206686-21.896706 23.043832l0 26.723641L418.879648 489.397213l0-26.723641c0-13.947663-11.45182-23.043832-25.345248-23.043832l-20.384259 0c-13.892405 0-25.365714 9.150404-25.365714 23.043832l0 22.766516c-53.321416-6.429433-99.374288-32.041764-129.534192-66.901713-31.249725-36.123732-48.128137-84.172051-48.128137-137.236618 0-1.610684 0.010233-1.635243 0.037862-5.190209l661.20009 0c0.024559 3.554966 0.038886 3.579525 0.038886 5.190209C831.399959 334.358137 816.249911 382.205888 784.993023 418.329621z" fill="#c8831d" p-id="1826"></path></svg>